<svg width="25" height="24" viewBox="0 0 25 24" fill="none" xmlns="http://www.w3.org/2000/svg">
<path d="M13.4108 0.575821L16.6678 7.39213L24.1233 8.39953C24.9631 8.51301 25.2991 9.55273 24.6861 10.1407L19.2435 15.3608L20.5943 22.7997C20.7464 23.6376 19.8666 24.2802 19.1209 23.8758L12.5002 20.2857L5.87947 23.8758C5.13373 24.2802 4.25387 23.6376 4.40604 22.7997L5.7568 15.3608L0.314241 10.1407C-0.298802 9.55273 0.0372784 8.51301 0.877041 8.39953L8.33255 7.39213L11.5896 0.575821C11.9564 -0.19194 13.0439 -0.19194 13.4108 0.575821Z" fill="#FFC239"/>
<path d="M24.6861 10.1407L19.2435 15.3608L20.5943 22.7997C20.7464 23.6376 19.8666 24.2802 19.1209 23.8758L12.5002 20.2857L5.87947 23.8758C5.13373 24.2802 4.25387 23.6376 4.40604 22.7997L5.7568 15.3608L0.314241 10.1407C-0.0407156 9.80057 -0.0778579 9.30839 0.117692 8.93238L6.76162 14.0656L5.61202 20.3961C5.48291 21.1089 6.23145 21.6561 6.86623 21.3118L12.5 18.2569L18.1343 21.3118C18.7687 21.6561 19.5176 21.109 19.3881 20.3961L18.2385 14.0656L24.8824 8.93238C25.078 9.30839 25.0411 9.8006 24.6861 10.1407Z" fill="#FFAF3B"/>
<path d="M11.9329 6.17625C12.4179 5.00099 12.3767 3.86711 11.8408 3.64366C11.305 3.42021 10.4774 4.1918 9.9924 5.36706C9.5074 6.54232 9.54864 7.6762 10.0845 7.89965C10.6204 8.1231 11.4479 7.3515 11.9329 6.17625Z" fill="#FFD56C"/>
<path d="M8.25124 9.56805C7.57741 9.71622 6.95425 9.48167 6.85877 9.04387C6.76328 8.60608 7.23201 8.13115 7.90581 7.98259C8.57921 7.83442 9.20237 8.06897 9.29786 8.50677C9.39334 8.94456 8.92464 9.41949 8.25124 9.56805Z" fill="#FFD56C"/>
</svg>
