<svg width="25" height="24" viewBox="0 0 25 24" fill="none" xmlns="http://www.w3.org/2000/svg">
<path d="M13.4106 0.575821L16.6676 7.39213L24.1231 8.39953C24.9629 8.51301 25.299 9.55274 24.6859 10.1407L19.2434 15.3608L20.5941 22.7997C20.7463 23.6376 19.8664 24.2803 19.1207 23.8759L12.5 20.2857L5.8793 23.8759C5.13356 24.2803 4.25369 23.6376 4.40587 22.7997L5.75663 15.3608L0.314069 10.1407C-0.298975 9.55274 0.0371057 8.51301 0.876868 8.39953L8.33238 7.39213L11.5894 0.575821C11.9562 -0.19194 13.0437 -0.19194 13.4106 0.575821Z" fill="#E5E5E5"/>
<path d="M24.6859 10.1407L19.2434 15.3608L20.5941 22.7997C20.7463 23.6376 19.8664 24.2803 19.1207 23.8759L12.5 20.2857L5.8793 23.8759C5.13356 24.2803 4.25369 23.6376 4.40587 22.7997L5.75663 15.3608L0.314069 10.1407C-0.0408883 9.80058 -0.0779537 9.30843 0.117596 8.93242L6.76152 14.0656L5.61193 20.3962C5.48282 21.109 6.23136 21.6561 6.86613 21.3118L12.5 18.2569L18.1342 21.3118C18.7686 21.6561 19.5175 21.109 19.388 20.3962L18.2384 14.0656L24.8823 8.93242C25.0779 9.30843 25.0409 9.80061 24.6859 10.1407Z" fill="#C7C7C7"/>
<path d="M11.9328 6.17627C12.4178 5.00101 12.3766 3.86713 11.8407 3.64368C11.3049 3.42023 10.4773 4.19183 9.99231 5.36708C9.50731 6.54234 9.54854 7.67622 10.0844 7.89967C10.6203 8.12312 11.4478 7.35153 11.9328 6.17627Z" fill="#F9F9F9"/>
<path d="M8.2511 9.56807C7.57727 9.71624 6.95411 9.48169 6.85863 9.04389C6.76314 8.6061 7.23187 8.13117 7.90567 7.98261C8.57907 7.83444 9.20223 8.06899 9.29772 8.50679C9.3932 8.94458 8.92451 9.41951 8.2511 9.56807Z" fill="#F9F9F9"/>
</svg>
