<svg width="800" height="800" viewBox="0 0 800 800" fill="none" xmlns="http://www.w3.org/2000/svg">
<path d="M274.46 565.009C264.26 565.309 255.71 557.249 255.41 547.049L243.97 155.929C243.67 145.729 251.73 137.189 261.93 136.889L541.16 128.719C551.36 128.419 559.9 136.479 560.2 146.679L571.64 537.799C571.94 547.999 563.88 556.549 553.68 556.849L274.46 565.009Z" fill="black"/>
<path d="M553.49 550.36L274.27 558.53C267.63 558.72 262.1 553.5 261.9 546.86L250.46 155.74C250.27 149.11 255.49 143.57 262.12 143.38L541.35 135.21C547.98 135.02 553.52 140.24 553.71 146.87L565.15 537.99C565.35 544.63 560.13 550.16 553.49 550.36Z" fill="url(#paint0_linear_123_1973)"/>
<g opacity="0.3" style="mix-blend-mode:overlay">
<path d="M185.11 363.12L367.59 109.45L438.71 99.2598L209.7 537.69L185.11 363.12Z" fill="#83C4E4"/>
</g>
<g opacity="0.3" style="mix-blend-mode:overlay">
<path d="M289.15 590.55L495.04 83L591.24 98.04L443.25 642.85L289.15 590.55Z" fill="#83C4E4"/>
</g>
<path d="M611.3 702.23C611.3 702.23 586.82 639.55 590.35 623.71C593.87 607.88 616.93 586.41 623.62 556.32C630.31 526.23 618.52 526.93 618.52 526.93C618.52 526.93 625.39 503.53 604.1 502.12C604.1 502.12 600.24 459.71 587.75 448.62C587.75 448.62 591.8 422.93 587.23 413.6C582.65 404.27 575.79 397.76 570.51 406.56C565.23 415.36 568.39 431.02 564.7 440.17C561 449.32 553.96 466.03 550.61 473.6C547.27 481.17 542.16 511.61 535.12 513.37C528.08 515.12 520.17 468.49 501.87 461.09C483.57 453.7 479.17 466.02 483.39 476.93C487.61 487.84 495 499.45 497.28 511.6C499.57 523.74 503.25 574.42 508.35 588.85C513.45 603.28 522.25 608.56 526.82 617.89C531.4 627.22 538.07 701.83 538.07 701.83C538.07 701.83 588.97 736.22 611.3 702.23Z" fill="#1768A1"/>
<path d="M192.67 627.29C192.67 627.29 204.42 671.03 281.82 638.53C281.82 638.53 310.94 551.97 315.31 546.07C319.69 540.17 349.66 518.22 356.7 506.68C363.73 495.14 386.28 458.54 392.11 450.68C392.837 449.693 393.59 448.59 394.37 447.37C399.71 438.8 405.19 425.34 400.02 421.51C399.613 421.197 399.183 420.933 398.73 420.72C392.87 417.74 384.45 421.98 375.36 432.17C366.37 442.25 362.06 460.39 348.11 460.71C342.64 460.85 351.45 400.73 355.05 389.7C358.66 378.66 367.08 352.92 367.27 342.39C367.33 339.37 366.44 336.8 364.95 334.83C361.33 329.96 354.1 328.88 348.73 334.56C348.697 334.587 348.66 334.623 348.62 334.67C341.08 342.79 320.38 403.6 319.94 412.41C319.94 412.41 311.75 392.64 295.21 410.84C295.21 410.84 278.97 395.76 264.65 417.13C264.65 417.13 249.18 407.19 237.08 431.73C224.98 456.27 237.63 529.63 236.94 536.73C236.25 543.83 192.67 627.29 192.67 627.29Z" fill="#1768A1"/>
<path d="M641.74 685.719C641.74 685.719 610.45 626.14 612.19 610.01C613.93 593.88 634.46 569.99 637.77 539.35C641.08 508.7 629.44 510.709 629.44 510.709C629.44 510.709 633.67 486.68 612.35 487.65C612.35 487.65 603.8 445.93 590.15 436.3C590.15 436.3 591.33 410.31 585.74 401.55C580.16 392.79 572.62 387.08 568.35 396.41C564.08 405.74 568.96 420.949 566.31 430.459C563.65 439.959 558.51 457.36 556.02 465.25C553.54 473.14 551.84 503.96 545.04 506.49C538.24 509.02 525.2 463.55 506.19 458.24C487.19 452.92 484.18 465.65 489.59 476.02C494.99 486.4 503.63 497.12 507.25 508.93C510.87 520.75 520.16 570.71 526.83 584.48C533.5 598.25 542.83 602.53 548.41 611.29C553.99 620.05 568.91 693.459 568.91 693.459C568.91 693.459 623.33 721.979 641.74 685.719Z" fill="#F5AB85"/>
<path d="M487.74 469.23C488.81 467.12 492.95 460.49 502.12 462.65C502.34 462.696 502.533 462.793 502.7 462.94C504.14 464.22 511.19 470.85 509.12 476.5C506.81 482.78 498.57 483.52 495.52 481.56C492.91 479.89 488.88 472.56 487.75 470.44C487.55 470.06 487.55 469.62 487.74 469.23Z" fill="#DF9B82"/>
<path d="M159 605.44C159 605.44 165.5 650.26 246.2 627.12C246.2 627.12 285.34 544.61 290.37 539.26C295.41 533.92 327.77 515.66 336.12 505.03C344.47 494.4 371.18 460.72 377.9 453.6C378.733 452.706 379.61 451.7 380.53 450.58C386.84 442.71 393.88 429.98 389.2 425.57C388.827 425.21 388.43 424.896 388.01 424.63C382.54 420.98 373.68 424.2 363.45 433.25C353.33 442.2 346.91 459.7 333.02 458.38C327.57 457.86 343.41 399.21 348.3 388.67C353.18 378.14 364.58 353.57 366.01 343.14C366.43 340.15 365.85 337.48 364.61 335.36C361.58 330.1 354.53 328.17 348.53 333.18C348.49 333.2 348.45 333.23 348.41 333.27C339.96 340.44 312.22 398.39 310.75 407.09C310.75 407.09 304.95 386.48 286.38 402.61C286.38 402.61 272.03 385.71 255.29 405.25C255.29 405.25 241.1 393.54 226.19 416.49C211.27 439.43 215.18 513.76 213.65 520.73C212.13 527.7 159 605.44 159 605.44Z" fill="#F5AB85"/>
<path d="M345.25 343.75C345.45 350.67 354.1 350.42 357.51 348.58C359.56 347.49 362.42 340.99 364.37 335.96C364.52 335.58 364.49 335.14 364.26 334.79C361.11 330.03 354.5 328.4 348.77 332.98C348.61 333.113 348.483 333.273 348.39 333.46C346.58 337.29 345.18 341.17 345.25 343.75Z" fill="#DF9B82"/>
<path d="M379.51 450.119C380.08 450.419 380.77 450.279 381.16 449.769C387.3 441.869 393.72 429.839 389.2 425.569C388.827 425.209 388.43 424.896 388.01 424.629C383.28 427.609 373.45 434.219 372.25 438.179C371.28 441.399 374.98 447.749 379.51 450.119Z" fill="#DF9B82"/>
<path d="M450.51 332.17L450.83 343.07L402.59 344.48L402.27 333.58L450.51 332.17Z" fill="#EFF2F6"/>
<path d="M402.11 328.141L402.75 349.921L380.65 339.671L402.11 328.141Z" fill="#EFF2F6"/>
<defs>
<linearGradient id="paint0_linear_123_1973" x1="123.087" y1="598.106" x2="123.087" y2="185.101" gradientUnits="userSpaceOnUse">
<stop stop-color="#83C4E4"/>
<stop offset="1" stop-color="#008CC0"/>
</linearGradient>
</defs>
</svg>
