<svg width="800" height="800" viewBox="0 0 800 800" fill="none" xmlns="http://www.w3.org/2000/svg">
<path d="M222.542 535.311C212.392 535.611 203.902 527.601 203.602 517.451L192.222 128.521C191.932 118.381 199.942 109.881 210.082 109.591L487.742 101.461C497.892 101.171 506.382 109.181 506.682 119.321L518.062 508.251C518.352 518.401 510.342 526.891 500.202 527.191L222.542 535.311Z" fill="black"/>
<path d="M500.012 520.739L222.352 528.859C215.752 529.049 210.242 523.859 210.052 517.259L198.672 128.329C198.482 121.729 203.672 116.229 210.272 116.039L487.932 107.909C494.532 107.719 500.042 112.909 500.232 119.509L511.612 508.439C511.802 515.039 506.612 520.539 500.012 520.739Z" fill="url(#paint0_linear_123_2014)"/>
<g opacity="0.3" style="mix-blend-mode:overlay">
<path d="M133.692 334.55L315.152 82.3002L385.872 72.1602L158.142 508.14L133.692 334.55Z" fill="#83C4E4"/>
</g>
<g opacity="0.3" style="mix-blend-mode:overlay">
<path d="M237.152 560.71L441.882 56L537.542 70.95L390.382 612.71L237.152 560.71Z" fill="#83C4E4"/>
</g>
<path d="M233.852 585.89C225.522 601.22 165.592 744.34 165.592 744.34C70.5119 740.8 76.522 681.94 76.522 681.94C76.522 681.94 182.602 547.6 184.052 532.49C185.502 517.37 153.712 443.31 155.622 428.55C157.522 413.8 167.602 399.93 169.942 390C172.282 380.07 178.872 345.45 182.812 335.38C186.762 325.3 199.322 320.92 199.322 320.92L209.222 430.18C216.092 416.6 210.852 367.67 219.032 350.72C220.182 348.35 221.482 346.49 222.912 345.04C222.905 345.047 222.909 345.043 222.922 345.03C230.442 337.41 240.992 341.93 245.332 350.29C246.042 351.66 246.592 353.14 246.932 354.68C249.702 367.39 246.332 401.71 247.642 416.17C248.952 430.63 255.662 451.08 261.052 492.71C266.442 534.34 242.182 570.55 233.852 585.89Z" fill="#1768A1"/>
<path d="M706.325 692.646C696.695 709.556 646.265 741.546 604.415 726.016C604.415 726.016 550.705 550.116 546.675 543.146C542.645 536.166 527.945 531.656 520.095 521.306C512.255 510.956 492.645 485.086 490.085 472.616C487.525 460.136 484.635 442.276 482.185 431.596C481.645 429.256 480.825 426.666 479.915 423.986V423.966C476.775 414.466 472.675 403.926 476.625 399.466C477.239 398.773 478.005 398.196 478.925 397.736C478.919 397.736 478.922 397.736 478.935 397.736C485.525 394.486 498.925 399.426 504.245 408.616C512.305 422.556 512.955 433.346 517.095 442.106C521.235 450.876 536.165 458.996 543.135 454.966C550.105 450.936 554.235 400.166 551.245 380.506C548.245 360.846 543.565 343.086 541.435 337.806C539.315 332.526 529.345 316.896 528.795 307.906C528.615 304.856 529.055 301.756 529.995 299.136C531.835 294.026 535.615 290.676 540.505 292.766C543.715 294.136 548.165 299.156 552.475 304.806C558.155 312.226 563.615 320.766 565.835 323.696C569.755 328.876 574.555 348.426 576.785 355.506C579.015 362.586 583.925 383.936 586.375 394.616C586.375 394.616 600.425 388.346 607.945 393.306C615.455 398.256 618.125 412.526 618.125 412.526C618.125 412.526 628.695 408.276 636.215 413.236C643.725 418.196 644.495 430.776 644.495 430.776C644.495 430.776 653.475 430.226 657.395 435.406C661.325 440.576 659.685 473.146 657.075 489.546C654.465 505.936 640.145 537.476 633.385 545.096L706.325 692.646Z" fill="#1768A1"/>
<path d="M216.182 588.76C206.932 603.55 138.372 742.75 138.372 742.75C43.6821 733.41 53.2721 675.03 53.2721 675.03C53.2721 675.03 167.362 547.42 169.732 532.42C172.102 517.42 144.892 441.55 147.692 426.94C150.492 412.34 161.402 399.1 164.352 389.33C167.292 379.56 175.972 345.42 180.532 335.6C185.082 325.78 197.892 322.18 197.892 322.18L201.102 431.84C208.782 418.7 206.542 369.54 215.742 353.13C217.032 350.83 218.452 349.05 219.962 347.7C219.955 347.7 219.959 347.693 219.972 347.68C227.952 340.54 238.202 345.69 242.022 354.3C242.642 355.72 243.102 357.22 243.342 358.78C245.332 371.63 239.872 405.69 240.302 420.2C240.722 434.71 246.172 455.53 249.012 497.41C251.852 539.29 225.432 573.96 216.182 588.76Z" fill="#F5AB85"/>
<path d="M241.882 353.999C241.975 354.199 242.015 354.409 242.002 354.629C241.772 360.069 241.142 366.109 239.602 368.569C236.512 373.499 220.392 373.979 218.542 365.959C217.342 360.729 218.792 352.669 219.962 347.699C219.955 347.699 219.959 347.693 219.972 347.679C227.852 340.619 237.962 345.569 241.882 353.999Z" fill="#DF9B82"/>
<path d="M746.626 664.395C738.916 682.275 692.346 719.655 649.036 708.855C649.036 708.855 576.166 539.985 571.396 533.505C566.616 527.015 551.496 524.155 542.556 514.745C533.616 505.325 511.256 481.785 507.336 469.675C503.406 457.565 498.556 440.125 494.936 429.795C494.146 427.515 493.036 425.045 491.836 422.475V422.455C487.666 413.365 482.426 403.345 485.856 398.475C486.389 397.715 487.086 397.058 487.946 396.505C487.939 396.505 487.946 396.502 487.966 396.495C494.146 392.535 508.016 395.965 514.316 404.505C523.866 417.465 525.716 428.115 530.796 436.365C535.886 444.625 551.616 451.035 558.096 446.255C564.576 441.475 563.066 390.575 557.906 371.365C552.756 352.155 546.126 335.025 543.436 330.015C540.736 324.995 529.096 310.565 527.566 301.695C527.036 298.675 527.136 295.555 527.786 292.845C529.046 287.565 532.436 283.815 537.526 285.345C540.856 286.365 545.836 290.855 550.756 295.995C557.216 302.735 563.596 310.615 566.116 313.285C570.596 317.995 577.526 336.895 580.526 343.685C583.526 350.475 590.766 371.155 594.386 381.485C594.386 381.485 607.656 373.705 615.676 377.795C623.696 381.895 627.936 395.775 627.936 395.775C627.936 395.775 637.966 390.385 645.986 394.475C654.006 398.565 656.156 410.985 656.156 410.985C656.156 410.985 665.026 409.455 669.496 414.155C673.966 418.865 675.956 451.415 675.176 468.005C674.386 484.585 663.646 517.515 657.786 525.835L746.626 664.395Z" fill="#F5AB85"/>
<path d="M550.066 295.284C550.496 295.724 550.576 296.404 550.236 296.914C549.326 298.274 547.836 299.474 545.616 300.394C536.756 304.044 531.166 298.574 528.056 293.324C527.876 293.014 527.826 292.654 527.916 292.314C529.276 287.314 532.606 283.874 537.526 285.344C540.706 286.314 545.386 290.444 550.066 295.284Z" fill="#DF9B82"/>
<path d="M491.836 422.475V422.455C487.666 413.365 482.426 403.345 485.856 398.475C486.389 397.715 487.086 397.058 487.946 396.505C487.939 396.505 487.946 396.501 487.966 396.495C493.406 395.315 500.596 395.825 505.136 404.265C512.476 417.925 499.056 424.635 491.836 422.475Z" fill="#DF9B82"/>
<defs>
<linearGradient id="paint0_linear_123_2014" x1="72.0171" y1="568.216" x2="72.0171" y2="157.524" gradientUnits="userSpaceOnUse">
<stop stop-color="#83C4E4"/>
<stop offset="1" stop-color="#008CC0"/>
</linearGradient>
</defs>
</svg>
