<svg width="800" height="800" viewBox="0 0 800 800" fill="none" xmlns="http://www.w3.org/2000/svg">
<path d="M290.542 535.311C280.392 535.611 271.902 527.601 271.602 517.451L260.222 128.521C259.932 118.381 267.942 109.881 278.082 109.591L555.742 101.461C565.892 101.171 574.382 109.181 574.682 119.321L586.062 508.251C586.352 518.401 578.342 526.891 568.202 527.191L290.542 535.311Z" fill="black"/>
<path d="M568.012 520.739L290.352 528.859C283.752 529.049 278.242 523.859 278.052 517.259L266.672 128.329C266.482 121.729 271.672 116.229 278.272 116.039L555.932 107.909C562.532 107.719 568.042 112.909 568.232 119.509L579.612 508.439C579.802 515.039 574.612 520.539 568.012 520.739Z" fill="url(#paint0_linear_123_1951)"/>
<g opacity="0.3" style="mix-blend-mode:overlay">
<path d="M201.692 334.55L383.152 82.3002L453.872 72.1602L226.142 508.14L201.692 334.55Z" fill="#83C4E4"/>
</g>
<g opacity="0.3" style="mix-blend-mode:overlay">
<path d="M305.152 560.71L509.882 56L605.542 70.95L458.382 612.71L305.152 560.71Z" fill="#83C4E4"/>
</g>
<path d="M301.852 585.89C293.522 601.22 233.592 744.34 233.592 744.34C138.512 740.8 144.522 681.94 144.522 681.94C144.522 681.94 250.602 547.6 252.052 532.49C253.502 517.37 221.712 443.31 223.622 428.55C225.522 413.8 235.602 399.93 237.942 390C240.282 380.07 246.872 345.45 250.812 335.38C254.762 325.3 267.322 320.92 267.322 320.92L277.222 430.18C284.092 416.6 278.852 367.67 287.032 350.72C288.182 348.35 289.482 346.49 290.912 345.04C290.905 345.047 290.909 345.043 290.922 345.03C298.442 337.41 308.992 341.93 313.332 350.29C314.042 351.66 314.592 353.14 314.932 354.68C317.702 367.39 314.332 401.71 315.642 416.17C316.952 430.63 323.662 451.08 329.052 492.71C334.442 534.34 310.182 570.55 301.852 585.89Z" fill="#1768A1"/>
<path d="M637.732 668.621C628.102 685.531 577.672 717.521 535.822 701.991C535.822 701.991 482.112 526.091 478.082 519.121C474.052 512.141 459.352 507.631 451.502 497.281C443.662 486.931 424.052 461.061 421.492 448.591C418.932 436.111 416.042 418.251 413.592 407.571C413.052 405.231 412.232 402.641 411.322 399.961V399.941C408.182 390.441 404.082 379.901 408.032 375.441C408.645 374.747 409.412 374.171 410.332 373.711C410.325 373.711 410.329 373.711 410.342 373.711C416.932 370.461 430.332 375.401 435.652 384.591C443.712 398.531 444.362 409.321 448.502 418.081C452.642 426.851 467.572 434.971 474.542 430.941C481.512 426.911 485.642 376.141 482.652 356.481C479.652 336.821 474.972 319.061 472.842 313.781C470.722 308.501 460.752 292.871 460.202 283.881C460.022 280.831 460.462 277.731 461.402 275.111C463.242 270.001 467.022 266.651 471.912 268.741C475.122 270.111 479.572 275.131 483.882 280.781C489.562 288.201 495.022 296.741 497.242 299.671C501.162 304.851 505.962 324.401 508.192 331.481C510.422 338.561 515.332 359.911 517.782 370.591C517.782 370.591 531.832 364.321 539.352 369.281C546.862 374.231 549.532 388.501 549.532 388.501C549.532 388.501 560.102 384.251 567.622 389.211C575.132 394.171 575.902 406.751 575.902 406.751C575.902 406.751 584.882 406.201 588.802 411.381C592.732 416.551 591.092 449.121 588.482 465.521C585.872 481.911 571.552 513.451 564.792 521.071L637.732 668.621Z" fill="#1768A1"/>
<path d="M464.972 301.939C450.602 301.939 438.912 290.249 438.912 275.879C438.912 261.509 450.602 249.809 464.972 249.809C479.342 249.809 491.042 261.509 491.042 275.879C491.042 290.249 479.342 301.939 464.972 301.939ZM464.972 256.439C454.252 256.439 445.532 265.159 445.532 275.879C445.532 286.599 454.252 295.319 464.972 295.319C475.692 295.319 484.412 286.599 484.412 275.879C484.412 265.159 475.692 256.439 464.972 256.439Z" fill="#EFF2F6"/>
<path d="M464.972 316.729C442.442 316.729 424.122 298.4 424.122 275.88C424.122 253.35 442.442 235.02 464.972 235.02C487.502 235.02 505.832 253.35 505.832 275.88C505.832 298.4 487.502 316.729 464.972 316.729ZM464.972 241.65C446.102 241.65 430.742 257 430.742 275.88C430.742 294.75 446.102 310.109 464.972 310.109C483.842 310.109 499.202 294.75 499.202 275.88C499.202 257 483.842 241.65 464.972 241.65Z" fill="#EFF2F6"/>
<path d="M284.182 588.76C274.932 603.55 206.372 742.75 206.372 742.75C111.682 733.41 121.272 675.03 121.272 675.03C121.272 675.03 235.362 547.42 237.732 532.42C240.102 517.42 212.892 441.55 215.692 426.94C218.492 412.34 229.402 399.1 232.352 389.33C235.292 379.56 243.972 345.42 248.532 335.6C253.082 325.78 265.892 322.18 265.892 322.18L269.102 431.84C276.782 418.7 274.542 369.54 283.742 353.13C285.032 350.83 286.452 349.05 287.962 347.7C287.955 347.7 287.959 347.693 287.972 347.68C295.952 340.54 306.202 345.69 310.022 354.3C310.642 355.72 311.102 357.22 311.342 358.78C313.332 371.63 307.872 405.69 308.302 420.2C308.722 434.71 314.172 455.53 317.012 497.41C319.852 539.29 293.432 573.96 284.182 588.76Z" fill="#F5AB85"/>
<path d="M309.882 353.999C309.975 354.199 310.015 354.409 310.002 354.629C309.772 360.069 309.142 366.109 307.602 368.569C304.512 373.499 288.392 373.979 286.542 365.959C285.342 360.729 286.792 352.669 287.962 347.699C287.955 347.699 287.959 347.693 287.972 347.679C295.852 340.619 305.962 345.569 309.882 353.999Z" fill="#DF9B82"/>
<path d="M678.032 640.369C670.322 658.249 623.752 695.63 580.442 684.83C580.442 684.83 507.572 515.959 502.802 509.479C498.022 502.989 482.902 500.13 473.962 490.72C465.022 481.3 442.662 457.759 438.742 445.649C434.812 433.539 429.962 416.099 426.342 405.769C425.552 403.489 424.442 401.02 423.242 398.45V398.43C419.072 389.34 413.832 379.32 417.262 374.45C417.795 373.69 418.492 373.033 419.352 372.479C419.345 372.479 419.352 372.476 419.372 372.47C425.552 368.51 439.422 371.939 445.722 380.479C455.272 393.439 457.122 404.09 462.202 412.34C467.292 420.6 483.022 427.009 489.502 422.229C495.982 417.449 494.472 366.55 489.312 347.34C484.162 328.13 477.532 310.999 474.842 305.989C472.142 300.969 460.502 286.539 458.972 277.669C458.442 274.649 458.542 271.53 459.192 268.82C460.452 263.54 463.842 259.79 468.932 261.32C472.262 262.34 477.242 266.83 482.162 271.97C488.622 278.71 495.002 286.589 497.522 289.259C502.002 293.969 508.932 312.869 511.932 319.659C514.932 326.449 522.172 347.13 525.792 357.46C525.792 357.46 539.062 349.679 547.082 353.769C555.102 357.869 559.342 371.749 559.342 371.749C559.342 371.749 569.372 366.36 577.392 370.45C585.412 374.54 587.562 386.96 587.562 386.96C587.562 386.96 596.432 385.429 600.902 390.129C605.372 394.839 607.362 427.389 606.582 443.979C605.792 460.559 595.052 493.49 589.192 501.81L678.032 640.369Z" fill="#F5AB85"/>
<path d="M481.472 271.259C481.902 271.699 481.982 272.379 481.642 272.889C480.732 274.249 479.242 275.449 477.022 276.369C468.162 280.019 462.572 274.549 459.462 269.299C459.282 268.989 459.232 268.629 459.322 268.289C460.682 263.289 464.012 259.849 468.932 261.319C472.112 262.289 476.792 266.419 481.472 271.259Z" fill="#DF9B82"/>
<path d="M423.242 398.449V398.429C419.072 389.339 413.832 379.319 417.262 374.449C417.795 373.689 418.492 373.033 419.352 372.479C419.345 372.479 419.352 372.476 419.372 372.469C424.812 371.289 432.002 371.799 436.542 380.239C443.882 393.899 430.462 400.609 423.242 398.449Z" fill="#DF9B82"/>
<defs>
<linearGradient id="paint0_linear_123_1951" x1="140.017" y1="568.216" x2="140.017" y2="157.524" gradientUnits="userSpaceOnUse">
<stop stop-color="#83C4E4"/>
<stop offset="1" stop-color="#008CC0"/>
</linearGradient>
</defs>
</svg>
